<svg width="400" height="400" viewBox="0 0 400 400" xmlns="http://www.w3.org/2000/svg">
  <path d="M 200.0 200.0 L 200.0 20.0 A 180.0 180.0 0 0 1 204.4174211341242 20.05421263468324 Z" fill="rgb(255,0,0)" stroke="none" />
  <path d="M 200.0 200.0 L 204.4174211341242 20.05421263468324 A 180.0 180.0 0 0 1 208.83218137893527 20.216817883068956 Z" fill="rgb(255,6,0)" stroke="none" />
  <path d="M 200.0 200.0 L 208.83218137893527 20.216817883068956 A 180.0 180.0 0 0 1 213.24162144794013 20.487717797835757 Z" fill="rgb(255,11,0)" stroke="none" />
  <path d="M 200.0 200.0 L 213.24162144794013 20.487717797835757 A 180.0 180.0 0 0 1 217.6430852593209 20.866749199004545 Z" fill="rgb(255,17,0)" stroke="none" />
  <path d="M 200.0 200.0 L 217.6430852593209 20.866749199004545 A 180.0 180.0 0 0 1 222.03392153585892 21.353683772232216 Z" fill="rgb(255,24,0)" stroke="none" />
  <path d="M 200.0 200.0 L 222.03392153585892 21.353683772232216 A 180.0 180.0 0 0 1 226.4114854019651 21.948228206339422 Z" fill="rgb(255,30,0)" stroke="none" />
  <path d="M 200.0 200.0 L 226.4114854019651 21.948228206339422 A 180.0 180.0 0 0 1 230.7731399768542 22.650024369990575 Z" fill="rgb(255,35,0)" stroke="none" />
  <path d="M 200.0 200.0 L 230.7731399768542 22.650024369990575 A 180.0 180.0 0 0 1 235.1162579629031 23.458649527418515 Z" fill="rgb(255,41,0)" stroke="none" />
  <path d="M 200.0 200.0 L 235.1162579629031 23.458649527418515 A 180.0 180.0 0 0 1 239.43822322823655 24.373616593064867 Z" fill="rgb(255,48,0)" stroke="none" />
  <path d="M 200.0 200.0 L 239.43822322823655 24.373616593064867 A 180.0 180.0 0 0 1 243.7364323825875 25.39437442498209 Z" fill="rgb(255,54,0)" stroke="none" />
  <path d="M 200.0 200.0 L 243.7364323825875 25.39437442498209 A 180.0 180.0 0 0 1 248.0082963454817 26.520308156820818 Z" fill="rgb(255,60,0)" stroke="none" />
  <path d="M 200.0 200.0 L 248.0082963454817 26.520308156820818 A 180.0 180.0 0 0 1 252.25124190580323 27.75073956820239 Z" fill="rgb(255,65,0)" stroke="none" />
  <path d="M 200.0 200.0 L 252.25124190580323 27.75073956820239 A 180.0 180.0 0 0 1 256.46271327180045 29.08492749325339 Z" fill="rgb(255,72,0)" stroke="none" />
  <path d="M 200.0 200.0 L 256.46271327180045 29.08492749325339 A 180.0 180.0 0 0 1 260.6401736105996 30.522068267056255 Z" fill="rgb(255,78,0)" stroke="none" />
  <path d="M 200.0 200.0 L 260.6401736105996 30.522068267056255 A 180.0 180.0 0 0 1 264.7811065762979 32.06129620974701 Z" fill="rgb(255,83,0)" stroke="none" />
  <path d="M 200.0 200.0 L 264.7811065762979 32.06129620974701 A 180.0 180.0 0 0 1 268.88301782571614 33.70168414796839 Z" fill="rgb(255,89,0)" stroke="none" />
  <path d="M 200.0 200.0 L 268.88301782571614 33.70168414796839 A 180.0 180.0 0 0 1 272.94343652089816 35.44224397336447 Z" fill="rgb(255,96,0)" stroke="none" />
  <path d="M 200.0 200.0 L 272.94343652089816 35.44224397336447 A 180.0 180.0 0 0 1 276.9599168174508 37.281927237780195 Z" fill="rgb(255,102,0)" stroke="none" />
  <path d="M 200.0 200.0 L 276.9599168174508 37.281927237780195 A 180.0 180.0 0 0 1 280.93003933782916 39.21962578480725 Z" fill="rgb(255,108,0)" stroke="none" />
  <path d="M 200.0 200.0 L 280.93003933782916 39.21962578480725 A 180.0 180.0 0 0 1 284.85141262867955 41.254172417296104 Z" fill="rgb(255,113,0)" stroke="none" />
  <path d="M 200.0 200.0 L 284.85141262867955 41.254172417296104 A 180.0 180.0 0 0 1 288.72167460136114 43.38434160043195 Z" fill="rgb(255,120,0)" stroke="none" />
  <path d="M 200.0 200.0 L 288.72167460136114 43.38434160043195 A 180.0 180.0 0 0 1 292.5384939547799 45.60885019995101 Z" fill="rgb(255,126,0)" stroke="none" />
  <path d="M 200.0 200.0 L 292.5384939547799 45.60885019995101 A 180.0 180.0 0 0 1 296.2995715796775 47.92635825505275 Z" fill="rgb(255,132,0)" stroke="none" />
  <path d="M 200.0 200.0 L 296.2995715796775 47.92635825505275 A 180.0 180.0 0 0 1 300.00264194352843 50.33546978554185 Z" fill="rgb(255,138,0)" stroke="none" />
  <path d="M 200.0 200.0 L 300.00264194352843 50.33546978554185 A 180.0 180.0 0 0 1 303.64547445521214 52.83473363271494 Z" fill="rgb(255,144,0)" stroke="none" />
  <path d="M 200.0 200.0 L 303.64547445521214 52.83473363271494 A 180.0 180.0 0 0 1 307.225874808638 55.4226443334839 Z" fill="rgb(255,150,0)" stroke="none" />
  <path d="M 200.0 200.0 L 307.225874808638 55.4226443334839 A 180.0 180.0 0 0 1 310.7416863045128 58.09764302721089 Z" fill="rgb(255,155,0)" stroke="none" />
  <path d="M 200.0 200.0 L 310.7416863045128 58.09764302721089 A 180.0 180.0 0 0 1 314.1907911494562 60.85811839470733 Z" fill="rgb(255,162,0)" stroke="none" />
  <path d="M 200.0 200.0 L 314.1907911494562 60.85811839470733 A 180.0 180.0 0 0 1 317.5711117316798 63.70240762883279 Z" fill="rgb(255,168,0)" stroke="none" />
  <path d="M 200.0 200.0 L 317.5711117316798 63.70240762883279 A 180.0 180.0 0 0 1 320.8806118724633 66.62879743610736 Z" fill="rgb(255,173,0)" stroke="none" />
  <path d="M 200.0 200.0 L 320.8806118724633 66.62879743610736 A 180.0 180.0 0 0 1 324.117298052672 69.63552506873597 Z" fill="rgb(255,179,0)" stroke="none" />
  <path d="M 200.0 200.0 L 324.117298052672 69.63552506873597 A 180.0 180.0 0 0 1 327.27922061357856 72.72077938642146 Z" fill="rgb(255,186,0)" stroke="none" />
  <path d="M 200.0 200.0 L 327.27922061357856 72.72077938642146 A 180.0 180.0 0 0 1 330.36447493126406 75.88270194732797 Z" fill="rgb(255,191,0)" stroke="none" />
  <path d="M 200.0 200.0 L 330.36447493126406 75.88270194732797 A 180.0 180.0 0 0 1 333.37120256389267 79.11938812753668 Z" fill="rgb(255,198,0)" stroke="none" />
  <path d="M 200.0 200.0 L 333.37120256389267 79.11938812753668 A 180.0 180.0 0 0 1 336.2975923711672 82.42888826832018 Z" fill="rgb(255,204,0)" stroke="none" />
  <path d="M 200.0 200.0 L 336.2975923711672 82.42888826832018 A 180.0 180.0 0 0 1 339.14188160529267 85.80920885054381 Z" fill="rgb(255,210,0)" stroke="none" />
  <path d="M 200.0 200.0 L 339.14188160529267 85.80920885054381 A 180.0 180.0 0 0 1 341.9023569727891 89.25831369548717 Z" fill="rgb(255,216,0)" stroke="none" />
  <path d="M 200.0 200.0 L 341.9023569727891 89.25831369548717 A 180.0 180.0 0 0 1 344.5773556665161 92.77412519136199 Z" fill="rgb(255,222,0)" stroke="none" />
  <path d="M 200.0 200.0 L 344.5773556665161 92.77412519136199 A 180.0 180.0 0 0 1 347.1652663672851 96.35452554478783 Z" fill="rgb(255,228,0)" stroke="none" />
  <path d="M 200.0 200.0 L 347.1652663672851 96.35452554478783 A 180.0 180.0 0 0 1 349.6645302144582 99.99735805647161 Z" fill="rgb(255,234,0)" stroke="none" />
  <path d="M 200.0 200.0 L 349.6645302144582 99.99735805647161 A 180.0 180.0 0 0 1 352.0736417449473 103.70042842032251 Z" fill="rgb(255,240,0)" stroke="none" />
  <path d="M 200.0 200.0 L 352.0736417449473 103.70042842032251 A 180.0 180.0 0 0 1 354.391149800049 107.46150604522008 Z" fill="rgb(255,246,0)" stroke="none" />
  <path d="M 200.0 200.0 L 354.391149800049 107.46150604522008 A 180.0 180.0 0 0 1 356.6156583995681 111.27832539863887 Z" fill="rgb(255,252,0)" stroke="none" />
  <path d="M 200.0 200.0 L 356.6156583995681 111.27832539863887 A 180.0 180.0 0 0 1 358.7458275827039 115.14858737132043 Z" fill="rgb(251,255,0)" stroke="none" />
  <path d="M 200.0 200.0 L 358.7458275827039 115.14858737132043 A 180.0 180.0 0 0 1 360.78037421519275 119.06996066217081 Z" fill="rgb(245,255,0)" stroke="none" />
  <path d="M 200.0 200.0 L 360.78037421519275 119.06996066217081 A 180.0 180.0 0 0 1 362.7180727622198 123.04008318254922 Z" fill="rgb(240,255,0)" stroke="none" />
  <path d="M 200.0 200.0 L 362.7180727622198 123.04008318254922 A 180.0 180.0 0 0 1 364.5577560266355 127.05656347910183 Z" fill="rgb(234,255,0)" stroke="none" />
  <path d="M 200.0 200.0 L 364.5577560266355 127.05656347910183 A 180.0 180.0 0 0 1 366.2983158520316 131.11698217428383 Z" fill="rgb(227,255,0)" stroke="none" />
  <path d="M 200.0 200.0 L 366.2983158520316 131.11698217428383 A 180.0 180.0 0 0 1 367.938703790253 135.21889342370213 Z" fill="rgb(222,255,0)" stroke="none" />
  <path d="M 200.0 200.0 L 367.938703790253 135.21889342370213 A 180.0 180.0 0 0 1 369.4779317329437 139.35982638940038 Z" fill="rgb(215,255,0)" stroke="none" />
  <path d="M 200.0 200.0 L 369.4779317329437 139.35982638940038 A 180.0 180.0 0 0 1 370.9150725067466 143.53728672819952 Z" fill="rgb(210,255,0)" stroke="none" />
  <path d="M 200.0 200.0 L 370.9150725067466 143.53728672819952 A 180.0 180.0 0 0 1 372.24926043179755 147.74875809419677 Z" fill="rgb(204,255,0)" stroke="none" />
  <path d="M 200.0 200.0 L 372.24926043179755 147.74875809419677 A 180.0 180.0 0 0 1 373.4796918431792 151.9917036545183 Z" fill="rgb(198,255,0)" stroke="none" />
  <path d="M 200.0 200.0 L 373.4796918431792 151.9917036545183 A 180.0 180.0 0 0 1 374.60562557501794 156.2635676174125 Z" fill="rgb(192,255,0)" stroke="none" />
  <path d="M 200.0 200.0 L 374.60562557501794 156.2635676174125 A 180.0 180.0 0 0 1 375.62638340693513 160.56177677176345 Z" fill="rgb(186,255,0)" stroke="none" />
  <path d="M 200.0 200.0 L 375.62638340693513 160.56177677176345 A 180.0 180.0 0 0 1 376.5413504725815 164.8837420370969 Z" fill="rgb(179,255,0)" stroke="none" />
  <path d="M 200.0 200.0 L 376.5413504725815 164.8837420370969 A 180.0 180.0 0 0 1 377.34997563000945 169.22686002314578 Z" fill="rgb(174,255,0)" stroke="none" />
  <path d="M 200.0 200.0 L 377.34997563000945 169.22686002314578 A 180.0 180.0 0 0 1 378.0517717936606 173.5885145980349 Z" fill="rgb(168,255,0)" stroke="none" />
  <path d="M 200.0 200.0 L 378.0517717936606 173.5885145980349 A 180.0 180.0 0 0 1 378.6463162277678 177.96607846414108 Z" fill="rgb(162,255,0)" stroke="none" />
  <path d="M 200.0 200.0 L 378.6463162277678 177.96607846414108 A 180.0 180.0 0 0 1 379.1332508009955 182.3569147406791 Z" fill="rgb(156,255,0)" stroke="none" />
  <path d="M 200.0 200.0 L 379.1332508009955 182.3569147406791 A 180.0 180.0 0 0 1 379.5122822021642 186.75837855205987 Z" fill="rgb(150,255,0)" stroke="none" />
  <path d="M 200.0 200.0 L 379.5122822021642 186.75837855205987 A 180.0 180.0 0 0 1 379.783182116931 191.16781862106475 Z" fill="rgb(144,255,0)" stroke="none" />
  <path d="M 200.0 200.0 L 379.783182116931 191.16781862106475 A 180.0 180.0 0 0 1 379.94578736531673 195.58257886587577 Z" fill="rgb(138,255,0)" stroke="none" />
  <path d="M 200.0 200.0 L 379.94578736531673 195.58257886587577 A 180.0 180.0 0 0 1 380.0 200.0 Z" fill="rgb(132,255,0)" stroke="none" />
  <path d="M 200.0 200.0 L 380.0 200.0 A 180.0 180.0 0 0 1 379.94578736531673 204.41742113412423 Z" fill="rgb(126,255,0)" stroke="none" />
  <path d="M 200.0 200.0 L 379.94578736531673 204.41742113412423 A 180.0 180.0 0 0 1 379.783182116931 208.83218137893525 Z" fill="rgb(120,255,0)" stroke="none" />
  <path d="M 200.0 200.0 L 379.783182116931 208.83218137893525 A 180.0 180.0 0 0 1 379.5122822021642 213.24162144794013 Z" fill="rgb(113,255,0)" stroke="none" />
  <path d="M 200.0 200.0 L 379.5122822021642 213.24162144794013 A 180.0 180.0 0 0 1 379.1332508009955 217.6430852593209 Z" fill="rgb(107,255,0)" stroke="none" />
  <path d="M 200.0 200.0 L 379.1332508009955 217.6430852593209 A 180.0 180.0 0 0 1 378.6463162277678 222.03392153585892 Z" fill="rgb(101,255,0)" stroke="none" />
  <path d="M 200.0 200.0 L 378.6463162277678 222.03392153585892 A 180.0 180.0 0 0 1 378.0517717936606 226.4114854019651 Z" fill="rgb(96,255,0)" stroke="none" />
  <path d="M 200.0 200.0 L 378.0517717936606 226.4114854019651 A 180.0 180.0 0 0 1 377.34997563000945 230.77313997685422 Z" fill="rgb(89,255,0)" stroke="none" />
  <path d="M 200.0 200.0 L 377.34997563000945 230.77313997685422 A 180.0 180.0 0 0 1 376.5413504725815 235.1162579629031 Z" fill="rgb(83,255,0)" stroke="none" />
  <path d="M 200.0 200.0 L 376.5413504725815 235.1162579629031 A 180.0 180.0 0 0 1 375.62638340693513 239.43822322823655 Z" fill="rgb(78,255,0)" stroke="none" />
  <path d="M 200.0 200.0 L 375.62638340693513 239.43822322823655 A 180.0 180.0 0 0 1 374.60562557501794 243.7364323825875 Z" fill="rgb(72,255,0)" stroke="none" />
  <path d="M 200.0 200.0 L 374.60562557501794 243.7364323825875 A 180.0 180.0 0 0 1 373.4796918431792 248.0082963454817 Z" fill="rgb(65,255,0)" stroke="none" />
  <path d="M 200.0 200.0 L 373.4796918431792 248.0082963454817 A 180.0 180.0 0 0 1 372.24926043179755 252.25124190580323 Z" fill="rgb(59,255,0)" stroke="none" />
  <path d="M 200.0 200.0 L 372.24926043179755 252.25124190580323 A 180.0 180.0 0 0 1 370.9150725067466 256.46271327180045 Z" fill="rgb(53,255,0)" stroke="none" />
  <path d="M 200.0 200.0 L 370.9150725067466 256.46271327180045 A 180.0 180.0 0 0 1 369.4779317329437 260.6401736105996 Z" fill="rgb(48,255,0)" stroke="none" />
  <path d="M 200.0 200.0 L 369.4779317329437 260.6401736105996 A 180.0 180.0 0 0 1 367.938703790253 264.7811065762979 Z" fill="rgb(41,255,0)" stroke="none" />
  <path d="M 200.0 200.0 L 367.938703790253 264.7811065762979 A 180.0 180.0 0 0 1 366.2983158520316 268.88301782571614 Z" fill="rgb(35,255,0)" stroke="none" />
  <path d="M 200.0 200.0 L 366.2983158520316 268.88301782571614 A 180.0 180.0 0 0 1 364.5577560266355 272.94343652089816 Z" fill="rgb(30,255,0)" stroke="none" />
  <path d="M 200.0 200.0 L 364.5577560266355 272.94343652089816 A 180.0 180.0 0 0 1 362.7180727622198 276.9599168174508 Z" fill="rgb(24,255,0)" stroke="none" />
  <path d="M 200.0 200.0 L 362.7180727622198 276.9599168174508 A 180.0 180.0 0 0 1 360.78037421519275 280.93003933782916 Z" fill="rgb(17,255,0)" stroke="none" />
  <path d="M 200.0 200.0 L 360.78037421519275 280.93003933782916 A 180.0 180.0 0 0 1 358.7458275827039 284.85141262867955 Z" fill="rgb(11,255,0)" stroke="none" />
  <path d="M 200.0 200.0 L 358.7458275827039 284.85141262867955 A 180.0 180.0 0 0 1 356.6156583995681 288.72167460136114 Z" fill="rgb(5,255,0)" stroke="none" />
  <path d="M 200.0 200.0 L 356.6156583995681 288.72167460136114 A 180.0 180.0 0 0 1 354.391149800049 292.53849395477994 Z" fill="rgb(0,255,0)" stroke="none" />
  <path d="M 200.0 200.0 L 354.391149800049 292.53849395477994 A 180.0 180.0 0 0 1 352.0736417449473 296.2995715796775 Z" fill="rgb(0,255,6)" stroke="none" />
  <path d="M 200.0 200.0 L 352.0736417449473 296.2995715796775 A 180.0 180.0 0 0 1 349.6645302144582 300.0026419435284 Z" fill="rgb(0,255,12)" stroke="none" />
  <path d="M 200.0 200.0 L 349.6645302144582 300.0026419435284 A 180.0 180.0 0 0 1 347.1652663672851 303.64547445521214 Z" fill="rgb(0,255,18)" stroke="none" />
  <path d="M 200.0 200.0 L 347.1652663672851 303.64547445521214 A 180.0 180.0 0 0 1 344.5773556665161 307.225874808638 Z" fill="rgb(0,255,24)" stroke="none" />
  <path d="M 200.0 200.0 L 344.5773556665161 307.225874808638 A 180.0 180.0 0 0 1 341.9023569727891 310.7416863045128 Z" fill="rgb(0,255,30)" stroke="none" />
  <path d="M 200.0 200.0 L 341.9023569727891 310.7416863045128 A 180.0 180.0 0 0 1 339.14188160529267 314.1907911494562 Z" fill="rgb(0,255,35)" stroke="none" />
  <path d="M 200.0 200.0 L 339.14188160529267 314.1907911494562 A 180.0 180.0 0 0 1 336.2975923711672 317.5711117316798 Z" fill="rgb(0,255,41)" stroke="none" />
  <path d="M 200.0 200.0 L 336.2975923711672 317.5711117316798 A 180.0 180.0 0 0 1 333.37120256389267 320.8806118724633 Z" fill="rgb(0,255,47)" stroke="none" />
  <path d="M 200.0 200.0 L 333.37120256389267 320.8806118724633 A 180.0 180.0 0 0 1 330.36447493126406 324.117298052672 Z" fill="rgb(0,255,54)" stroke="none" />
  <path d="M 200.0 200.0 L 330.36447493126406 324.117298052672 A 180.0 180.0 0 0 1 327.27922061357856 327.27922061357856 Z" fill="rgb(0,255,60)" stroke="none" />
  <path d="M 200.0 200.0 L 327.27922061357856 327.27922061357856 A 180.0 180.0 0 0 1 324.117298052672 330.364474931264 Z" fill="rgb(0,255,65)" stroke="none" />
  <path d="M 200.0 200.0 L 324.117298052672 330.364474931264 A 180.0 180.0 0 0 1 320.8806118724633 333.37120256389267 Z" fill="rgb(0,255,71)" stroke="none" />
  <path d="M 200.0 200.0 L 320.8806118724633 333.37120256389267 A 180.0 180.0 0 0 1 317.5711117316798 336.2975923711672 Z" fill="rgb(0,255,78)" stroke="none" />
  <path d="M 200.0 200.0 L 317.5711117316798 336.2975923711672 A 180.0 180.0 0 0 1 314.1907911494562 339.14188160529267 Z" fill="rgb(0,255,84)" stroke="none" />
  <path d="M 200.0 200.0 L 314.1907911494562 339.14188160529267 A 180.0 180.0 0 0 1 310.7416863045128 341.9023569727891 Z" fill="rgb(0,255,90)" stroke="none" />
  <path d="M 200.0 200.0 L 310.7416863045128 341.9023569727891 A 180.0 180.0 0 0 1 307.225874808638 344.5773556665161 Z" fill="rgb(0,255,96)" stroke="none" />
  <path d="M 200.0 200.0 L 307.225874808638 344.5773556665161 A 180.0 180.0 0 0 1 303.64547445521214 347.1652663672851 Z" fill="rgb(0,255,101)" stroke="none" />
  <path d="M 200.0 200.0 L 303.64547445521214 347.1652663672851 A 180.0 180.0 0 0 1 300.00264194352843 349.6645302144582 Z" fill="rgb(0,255,107)" stroke="none" />
  <path d="M 200.0 200.0 L 300.00264194352843 349.6645302144582 A 180.0 180.0 0 0 1 296.2995715796775 352.0736417449473 Z" fill="rgb(0,255,113)" stroke="none" />
  <path d="M 200.0 200.0 L 296.2995715796775 352.0736417449473 A 180.0 180.0 0 0 1 292.5384939547799 354.391149800049 Z" fill="rgb(0,255,119)" stroke="none" />
  <path d="M 200.0 200.0 L 292.5384939547799 354.391149800049 A 180.0 180.0 0 0 1 288.72167460136114 356.615658399568 Z" fill="rgb(0,255,126)" stroke="none" />
  <path d="M 200.0 200.0 L 288.72167460136114 356.615658399568 A 180.0 180.0 0 0 1 284.85141262867955 358.7458275827039 Z" fill="rgb(0,255,131)" stroke="none" />
  <path d="M 200.0 200.0 L 284.85141262867955 358.7458275827039 A 180.0 180.0 0 0 1 280.93003933782916 360.78037421519275 Z" fill="rgb(0,255,137)" stroke="none" />
  <path d="M 200.0 200.0 L 280.93003933782916 360.78037421519275 A 180.0 180.0 0 0 1 276.9599168174508 362.7180727622198 Z" fill="rgb(0,255,143)" stroke="none" />
  <path d="M 200.0 200.0 L 276.9599168174508 362.7180727622198 A 180.0 180.0 0 0 1 272.94343652089816 364.5577560266355 Z" fill="rgb(0,255,150)" stroke="none" />
  <path d="M 200.0 200.0 L 272.94343652089816 364.5577560266355 A 180.0 180.0 0 0 1 268.88301782571614 366.2983158520316 Z" fill="rgb(0,255,156)" stroke="none" />
  <path d="M 200.0 200.0 L 268.88301782571614 366.2983158520316 A 180.0 180.0 0 0 1 264.7811065762979 367.938703790253 Z" fill="rgb(0,255,162)" stroke="none" />
  <path d="M 200.0 200.0 L 264.7811065762979 367.938703790253 A 180.0 180.0 0 0 1 260.6401736105996 369.4779317329437 Z" fill="rgb(0,255,167)" stroke="none" />
  <path d="M 200.0 200.0 L 260.6401736105996 369.4779317329437 A 180.0 180.0 0 0 1 256.46271327180045 370.9150725067466 Z" fill="rgb(0,255,173)" stroke="none" />
  <path d="M 200.0 200.0 L 256.46271327180045 370.9150725067466 A 180.0 180.0 0 0 1 252.25124190580323 372.2492604317976 Z" fill="rgb(0,255,179)" stroke="none" />
  <path d="M 200.0 200.0 L 252.25124190580323 372.2492604317976 A 180.0 180.0 0 0 1 248.0082963454817 373.4796918431792 Z" fill="rgb(0,255,185)" stroke="none" />
  <path d="M 200.0 200.0 L 248.0082963454817 373.4796918431792 A 180.0 180.0 0 0 1 243.7364323825875 374.60562557501794 Z" fill="rgb(0,255,191)" stroke="none" />
  <path d="M 200.0 200.0 L 243.7364323825875 374.60562557501794 A 180.0 180.0 0 0 1 239.43822322823655 375.62638340693513 Z" fill="rgb(0,255,197)" stroke="none" />
  <path d="M 200.0 200.0 L 239.43822322823655 375.62638340693513 A 180.0 180.0 0 0 1 235.1162579629031 376.5413504725815 Z" fill="rgb(0,255,203)" stroke="none" />
  <path d="M 200.0 200.0 L 235.1162579629031 376.5413504725815 A 180.0 180.0 0 0 1 230.7731399768542 377.34997563000945 Z" fill="rgb(0,255,209)" stroke="none" />
  <path d="M 200.0 200.0 L 230.7731399768542 377.34997563000945 A 180.0 180.0 0 0 1 226.4114854019651 378.0517717936606 Z" fill="rgb(0,255,215)" stroke="none" />
  <path d="M 200.0 200.0 L 226.4114854019651 378.0517717936606 A 180.0 180.0 0 0 1 222.03392153585892 378.6463162277678 Z" fill="rgb(0,255,222)" stroke="none" />
  <path d="M 200.0 200.0 L 222.03392153585892 378.6463162277678 A 180.0 180.0 0 0 1 217.6430852593209 379.1332508009955 Z" fill="rgb(0,255,227)" stroke="none" />
  <path d="M 200.0 200.0 L 217.6430852593209 379.1332508009955 A 180.0 180.0 0 0 1 213.24162144794013 379.5122822021642 Z" fill="rgb(0,255,233)" stroke="none" />
  <path d="M 200.0 200.0 L 213.24162144794013 379.5122822021642 A 180.0 180.0 0 0 1 208.83218137893527 379.783182116931 Z" fill="rgb(0,255,239)" stroke="none" />
  <path d="M 200.0 200.0 L 208.83218137893527 379.783182116931 A 180.0 180.0 0 0 1 204.4174211341242 379.94578736531673 Z" fill="rgb(0,255,245)" stroke="none" />
  <path d="M 200.0 200.0 L 204.4174211341242 379.94578736531673 A 180.0 180.0 0 0 1 200.0 380.0 Z" fill="rgb(0,255,252)" stroke="none" />
  <path d="M 200.0 200.0 L 200.0 380.0 A 180.0 180.0 0 0 1 195.58257886587577 379.94578736531673 Z" fill="rgb(0,252,255)" stroke="none" />
  <path d="M 200.0 200.0 L 195.58257886587577 379.94578736531673 A 180.0 180.0 0 0 1 191.16781862106475 379.783182116931 Z" fill="rgb(0,245,255)" stroke="none" />
  <path d="M 200.0 200.0 L 191.16781862106475 379.783182116931 A 180.0 180.0 0 0 1 186.75837855205987 379.5122822021642 Z" fill="rgb(0,240,255)" stroke="none" />
  <path d="M 200.0 200.0 L 186.75837855205987 379.5122822021642 A 180.0 180.0 0 0 1 182.3569147406791 379.1332508009955 Z" fill="rgb(0,233,255)" stroke="none" />
  <path d="M 200.0 200.0 L 182.3569147406791 379.1332508009955 A 180.0 180.0 0 0 1 177.9660784641411 378.6463162277678 Z" fill="rgb(0,227,255)" stroke="none" />
  <path d="M 200.0 200.0 L 177.9660784641411 378.6463162277678 A 180.0 180.0 0 0 1 173.58851459803492 378.0517717936606 Z" fill="rgb(0,221,255)" stroke="none" />
  <path d="M 200.0 200.0 L 173.58851459803492 378.0517717936606 A 180.0 180.0 0 0 1 169.22686002314578 377.34997563000945 Z" fill="rgb(0,215,255)" stroke="none" />
  <path d="M 200.0 200.0 L 169.22686002314578 377.34997563000945 A 180.0 180.0 0 0 1 164.8837420370969 376.5413504725815 Z" fill="rgb(0,209,255)" stroke="none" />
  <path d="M 200.0 200.0 L 164.8837420370969 376.5413504725815 A 180.0 180.0 0 0 1 160.56177677176342 375.62638340693513 Z" fill="rgb(0,203,255)" stroke="none" />
  <path d="M 200.0 200.0 L 160.56177677176342 375.62638340693513 A 180.0 180.0 0 0 1 156.2635676174125 374.60562557501794 Z" fill="rgb(0,197,255)" stroke="none" />
  <path d="M 200.0 200.0 L 156.2635676174125 374.60562557501794 A 180.0 180.0 0 0 1 151.9917036545183 373.4796918431792 Z" fill="rgb(0,192,255)" stroke="none" />
  <path d="M 200.0 200.0 L 151.9917036545183 373.4796918431792 A 180.0 180.0 0 0 1 147.74875809419677 372.24926043179755 Z" fill="rgb(0,186,255)" stroke="none" />
  <path d="M 200.0 200.0 L 147.74875809419677 372.24926043179755 A 180.0 180.0 0 0 1 143.53728672819955 370.9150725067466 Z" fill="rgb(0,179,255)" stroke="none" />
  <path d="M 200.0 200.0 L 143.53728672819955 370.9150725067466 A 180.0 180.0 0 0 1 139.3598263894004 369.4779317329437 Z" fill="rgb(0,173,255)" stroke="none" />
  <path d="M 200.0 200.0 L 139.3598263894004 369.4779317329437 A 180.0 180.0 0 0 1 135.21889342370213 367.938703790253 Z" fill="rgb(0,167,255)" stroke="none" />
  <path d="M 200.0 200.0 L 135.21889342370213 367.938703790253 A 180.0 180.0 0 0 1 131.11698217428386 366.2983158520316 Z" fill="rgb(0,162,255)" stroke="none" />
  <path d="M 200.0 200.0 L 131.11698217428386 366.2983158520316 A 180.0 180.0 0 0 1 127.05656347910181 364.5577560266355 Z" fill="rgb(0,156,255)" stroke="none" />
  <path d="M 200.0 200.0 L 127.05656347910181 364.5577560266355 A 180.0 180.0 0 0 1 123.04008318254927 362.71807276221983 Z" fill="rgb(0,150,255)" stroke="none" />
  <path d="M 200.0 200.0 L 123.04008318254927 362.71807276221983 A 180.0 180.0 0 0 1 119.06996066217079 360.78037421519275 Z" fill="rgb(0,144,255)" stroke="none" />
  <path d="M 200.0 200.0 L 119.06996066217079 360.78037421519275 A 180.0 180.0 0 0 1 115.14858737132042 358.7458275827039 Z" fill="rgb(0,138,255)" stroke="none" />
  <path d="M 200.0 200.0 L 115.14858737132042 358.7458275827039 A 180.0 180.0 0 0 1 111.27832539863888 356.6156583995681 Z" fill="rgb(0,131,255)" stroke="none" />
  <path d="M 200.0 200.0 L 111.27832539863888 356.6156583995681 A 180.0 180.0 0 0 1 107.4615060452201 354.391149800049 Z" fill="rgb(0,125,255)" stroke="none" />
  <path d="M 200.0 200.0 L 107.4615060452201 354.391149800049 A 180.0 180.0 0 0 1 103.70042842032254 352.0736417449473 Z" fill="rgb(0,119,255)" stroke="none" />
  <path d="M 200.0 200.0 L 103.70042842032254 352.0736417449473 A 180.0 180.0 0 0 1 99.99735805647158 349.6645302144581 Z" fill="rgb(0,113,255)" stroke="none" />
  <path d="M 200.0 200.0 L 99.99735805647158 349.6645302144581 A 180.0 180.0 0 0 1 96.35452554478783 347.1652663672851 Z" fill="rgb(0,107,255)" stroke="none" />
  <path d="M 200.0 200.0 L 96.35452554478783 347.1652663672851 A 180.0 180.0 0 0 1 92.77412519136199 344.5773556665161 Z" fill="rgb(0,101,255)" stroke="none" />
  <path d="M 200.0 200.0 L 92.77412519136199 344.5773556665161 A 180.0 180.0 0 0 1 89.25831369548719 341.9023569727891 Z" fill="rgb(0,96,255)" stroke="none" />
  <path d="M 200.0 200.0 L 89.25831369548719 341.9023569727891 A 180.0 180.0 0 0 1 85.80920885054383 339.14188160529267 Z" fill="rgb(0,90,255)" stroke="none" />
  <path d="M 200.0 200.0 L 85.80920885054383 339.14188160529267 A 180.0 180.0 0 0 1 82.42888826832016 336.2975923711672 Z" fill="rgb(0,83,255)" stroke="none" />
  <path d="M 200.0 200.0 L 82.42888826832016 336.2975923711672 A 180.0 180.0 0 0 1 79.11938812753668 333.3712025638926 Z" fill="rgb(0,77,255)" stroke="none" />
  <path d="M 200.0 200.0 L 79.11938812753668 333.3712025638926 A 180.0 180.0 0 0 1 75.88270194732794 330.364474931264 Z" fill="rgb(0,71,255)" stroke="none" />
  <path d="M 200.0 200.0 L 75.88270194732794 330.364474931264 A 180.0 180.0 0 0 1 72.72077938642146 327.27922061357856 Z" fill="rgb(0,65,255)" stroke="none" />
  <path d="M 200.0 200.0 L 72.72077938642146 327.27922061357856 A 180.0 180.0 0 0 1 69.63552506873597 324.1172980526721 Z" fill="rgb(0,60,255)" stroke="none" />
  <path d="M 200.0 200.0 L 69.63552506873597 324.1172980526721 A 180.0 180.0 0 0 1 66.62879743610739 320.8806118724633 Z" fill="rgb(0,54,255)" stroke="none" />
  <path d="M 200.0 200.0 L 66.62879743610739 320.8806118724633 A 180.0 180.0 0 0 1 63.70240762883279 317.5711117316798 Z" fill="rgb(0,48,255)" stroke="none" />
  <path d="M 200.0 200.0 L 63.70240762883279 317.5711117316798 A 180.0 180.0 0 0 1 60.85811839470733 314.1907911494562 Z" fill="rgb(0,42,255)" stroke="none" />
  <path d="M 200.0 200.0 L 60.85811839470733 314.1907911494562 A 180.0 180.0 0 0 1 58.09764302721089 310.7416863045129 Z" fill="rgb(0,35,255)" stroke="none" />
  <path d="M 200.0 200.0 L 58.09764302721089 310.7416863045129 A 180.0 180.0 0 0 1 55.42264433348393 307.225874808638 Z" fill="rgb(0,29,255)" stroke="none" />
  <path d="M 200.0 200.0 L 55.42264433348393 307.225874808638 A 180.0 180.0 0 0 1 52.83473363271494 303.6454744552122 Z" fill="rgb(0,23,255)" stroke="none" />
  <path d="M 200.0 200.0 L 52.83473363271494 303.6454744552122 A 180.0 180.0 0 0 1 50.33546978554185 300.0026419435284 Z" fill="rgb(0,17,255)" stroke="none" />
  <path d="M 200.0 200.0 L 50.33546978554185 300.0026419435284 A 180.0 180.0 0 0 1 47.92635825505272 296.2995715796775 Z" fill="rgb(0,11,255)" stroke="none" />
  <path d="M 200.0 200.0 L 47.92635825505272 296.2995715796775 A 180.0 180.0 0 0 1 45.608850199951036 292.53849395477994 Z" fill="rgb(0,5,255)" stroke="none" />
  <path d="M 200.0 200.0 L 45.608850199951036 292.53849395477994 A 180.0 180.0 0 0 1 43.38434160043195 288.72167460136114 Z" fill="rgb(0,0,255)" stroke="none" />
  <path d="M 200.0 200.0 L 43.38434160043195 288.72167460136114 A 180.0 180.0 0 0 1 41.254172417296104 284.8514126286796 Z" fill="rgb(5,0,255)" stroke="none" />
  <path d="M 200.0 200.0 L 41.254172417296104 284.8514126286796 A 180.0 180.0 0 0 1 39.21962578480722 280.93003933782916 Z" fill="rgb(12,0,255)" stroke="none" />
  <path d="M 200.0 200.0 L 39.21962578480722 280.93003933782916 A 180.0 180.0 0 0 1 37.281927237780195 276.9599168174508 Z" fill="rgb(18,0,255)" stroke="none" />
  <path d="M 200.0 200.0 L 37.281927237780195 276.9599168174508 A 180.0 180.0 0 0 1 35.44224397336447 272.9434365208982 Z" fill="rgb(24,0,255)" stroke="none" />
  <path d="M 200.0 200.0 L 35.44224397336447 272.9434365208982 A 180.0 180.0 0 0 1 33.70168414796839 268.8830178257162 Z" fill="rgb(30,0,255)" stroke="none" />
  <path d="M 200.0 200.0 L 33.70168414796839 268.8830178257162 A 180.0 180.0 0 0 1 32.06129620974701 264.78110657629793 Z" fill="rgb(36,0,255)" stroke="none" />
  <path d="M 200.0 200.0 L 32.06129620974701 264.78110657629793 A 180.0 180.0 0 0 1 30.522068267056255 260.64017361059956 Z" fill="rgb(42,0,255)" stroke="none" />
  <path d="M 200.0 200.0 L 30.522068267056255 260.64017361059956 A 180.0 180.0 0 0 1 29.08492749325339 256.46271327180045 Z" fill="rgb(48,0,255)" stroke="none" />
  <path d="M 200.0 200.0 L 29.08492749325339 256.46271327180045 A 180.0 180.0 0 0 1 27.75073956820242 252.25124190580323 Z" fill="rgb(54,0,255)" stroke="none" />
  <path d="M 200.0 200.0 L 27.75073956820242 252.25124190580323 A 180.0 180.0 0 0 1 26.520308156820818 248.0082963454817 Z" fill="rgb(60,0,255)" stroke="none" />
  <path d="M 200.0 200.0 L 26.520308156820818 248.0082963454817 A 180.0 180.0 0 0 1 25.39437442498209 243.73643238258754 Z" fill="rgb(65,0,255)" stroke="none" />
  <path d="M 200.0 200.0 L 25.39437442498209 243.73643238258754 A 180.0 180.0 0 0 1 24.373616593064867 239.4382232282366 Z" fill="rgb(71,0,255)" stroke="none" />
  <path d="M 200.0 200.0 L 24.373616593064867 239.4382232282366 A 180.0 180.0 0 0 1 23.458649527418515 235.11625796290306 Z" fill="rgb(78,0,255)" stroke="none" />
  <path d="M 200.0 200.0 L 23.458649527418515 235.11625796290306 A 180.0 180.0 0 0 1 22.650024369990575 230.77313997685422 Z" fill="rgb(83,0,255)" stroke="none" />
  <path d="M 200.0 200.0 L 22.650024369990575 230.77313997685422 A 180.0 180.0 0 0 1 21.948228206339422 226.41148540196514 Z" fill="rgb(90,0,255)" stroke="none" />
  <path d="M 200.0 200.0 L 21.948228206339422 226.41148540196514 A 180.0 180.0 0 0 1 21.353683772232216 222.03392153585895 Z" fill="rgb(95,0,255)" stroke="none" />
  <path d="M 200.0 200.0 L 21.353683772232216 222.03392153585895 A 180.0 180.0 0 0 1 20.866749199004573 217.64308525932094 Z" fill="rgb(102,0,255)" stroke="none" />
  <path d="M 200.0 200.0 L 20.866749199004573 217.64308525932094 A 180.0 180.0 0 0 1 20.487717797835757 213.2416214479401 Z" fill="rgb(108,0,255)" stroke="none" />
  <path d="M 200.0 200.0 L 20.487717797835757 213.2416214479401 A 180.0 180.0 0 0 1 20.216817883068956 208.83218137893525 Z" fill="rgb(114,0,255)" stroke="none" />
  <path d="M 200.0 200.0 L 20.216817883068956 208.83218137893525 A 180.0 180.0 0 0 1 20.05421263468324 204.41742113412423 Z" fill="rgb(120,0,255)" stroke="none" />
  <path d="M 200.0 200.0 L 20.05421263468324 204.41742113412423 A 180.0 180.0 0 0 1 20.0 200.00000000000003 Z" fill="rgb(126,0,255)" stroke="none" />
  <path d="M 200.0 200.0 L 20.0 200.00000000000003 A 180.0 180.0 0 0 1 20.05421263468324 195.58257886587583 Z" fill="rgb(131,0,255)" stroke="none" />
  <path d="M 200.0 200.0 L 20.05421263468324 195.58257886587583 A 180.0 180.0 0 0 1 20.216817883068956 191.16781862106473 Z" fill="rgb(137,0,255)" stroke="none" />
  <path d="M 200.0 200.0 L 20.216817883068956 191.16781862106473 A 180.0 180.0 0 0 1 20.487717797835757 186.75837855205984 Z" fill="rgb(143,0,255)" stroke="none" />
  <path d="M 200.0 200.0 L 20.487717797835757 186.75837855205984 A 180.0 180.0 0 0 1 20.866749199004545 182.3569147406791 Z" fill="rgb(149,0,255)" stroke="none" />
  <path d="M 200.0 200.0 L 20.866749199004545 182.3569147406791 A 180.0 180.0 0 0 1 21.353683772232216 177.9660784641411 Z" fill="rgb(156,0,255)" stroke="none" />
  <path d="M 200.0 200.0 L 21.353683772232216 177.9660784641411 A 180.0 180.0 0 0 1 21.948228206339422 173.58851459803492 Z" fill="rgb(162,0,255)" stroke="none" />
  <path d="M 200.0 200.0 L 21.948228206339422 173.58851459803492 A 180.0 180.0 0 0 1 22.650024369990547 169.22686002314583 Z" fill="rgb(168,0,255)" stroke="none" />
  <path d="M 200.0 200.0 L 22.650024369990547 169.22686002314583 A 180.0 180.0 0 0 1 23.458649527418515 164.8837420370969 Z" fill="rgb(174,0,255)" stroke="none" />
  <path d="M 200.0 200.0 L 23.458649527418515 164.8837420370969 A 180.0 180.0 0 0 1 24.373616593064867 160.56177677176345 Z" fill="rgb(180,0,255)" stroke="none" />
  <path d="M 200.0 200.0 L 24.373616593064867 160.56177677176345 A 180.0 180.0 0 0 1 25.39437442498209 156.26356761741252 Z" fill="rgb(186,0,255)" stroke="none" />
  <path d="M 200.0 200.0 L 25.39437442498209 156.26356761741252 A 180.0 180.0 0 0 1 26.520308156820818 151.99170365451832 Z" fill="rgb(192,0,255)" stroke="none" />
  <path d="M 200.0 200.0 L 26.520308156820818 151.99170365451832 A 180.0 180.0 0 0 1 27.75073956820239 147.74875809419683 Z" fill="rgb(197,0,255)" stroke="none" />
  <path d="M 200.0 200.0 L 27.75073956820239 147.74875809419683 A 180.0 180.0 0 0 1 29.08492749325339 143.53728672819952 Z" fill="rgb(203,0,255)" stroke="none" />
  <path d="M 200.0 200.0 L 29.08492749325339 143.53728672819952 A 180.0 180.0 0 0 1 30.522068267056255 139.35982638940038 Z" fill="rgb(210,0,255)" stroke="none" />
  <path d="M 200.0 200.0 L 30.522068267056255 139.35982638940038 A 180.0 180.0 0 0 1 32.061296209746985 135.21889342370213 Z" fill="rgb(215,0,255)" stroke="none" />
  <path d="M 200.0 200.0 L 32.061296209746985 135.21889342370213 A 180.0 180.0 0 0 1 33.701684147968365 131.11698217428386 Z" fill="rgb(222,0,255)" stroke="none" />
  <path d="M 200.0 200.0 L 33.701684147968365 131.11698217428386 A 180.0 180.0 0 0 1 35.44224397336447 127.05656347910185 Z" fill="rgb(227,0,255)" stroke="none" />
  <path d="M 200.0 200.0 L 35.44224397336447 127.05656347910185 A 180.0 180.0 0 0 1 37.28192723778022 123.04008318254921 Z" fill="rgb(234,0,255)" stroke="none" />
  <path d="M 200.0 200.0 L 37.28192723778022 123.04008318254921 A 180.0 180.0 0 0 1 39.21962578480725 119.0699606621708 Z" fill="rgb(239,0,255)" stroke="none" />
  <path d="M 200.0 200.0 L 39.21962578480725 119.0699606621708 A 180.0 180.0 0 0 1 41.254172417296104 115.14858737132043 Z" fill="rgb(246,0,255)" stroke="none" />
  <path d="M 200.0 200.0 L 41.254172417296104 115.14858737132043 A 180.0 180.0 0 0 1 43.384341600431924 111.2783253986389 Z" fill="rgb(252,0,255)" stroke="none" />
  <path d="M 200.0 200.0 L 43.384341600431924 111.2783253986389 A 180.0 180.0 0 0 1 45.60885019995101 107.46150604522012 Z" fill="rgb(255,0,252)" stroke="none" />
  <path d="M 200.0 200.0 L 45.60885019995101 107.46150604522012 A 180.0 180.0 0 0 1 47.92635825505269 103.70042842032255 Z" fill="rgb(255,0,246)" stroke="none" />
  <path d="M 200.0 200.0 L 47.92635825505269 103.70042842032255 A 180.0 180.0 0 0 1 50.33546978554185 99.99735805647158 Z" fill="rgb(255,0,240)" stroke="none" />
  <path d="M 200.0 200.0 L 50.33546978554185 99.99735805647158 A 180.0 180.0 0 0 1 52.83473363271494 96.35452554478783 Z" fill="rgb(255,0,234)" stroke="none" />
  <path d="M 200.0 200.0 L 52.83473363271494 96.35452554478783 A 180.0 180.0 0 0 1 55.4226443334839 92.77412519136202 Z" fill="rgb(255,0,228)" stroke="none" />
  <path d="M 200.0 200.0 L 55.4226443334839 92.77412519136202 A 180.0 180.0 0 0 1 58.097643027210864 89.25831369548719 Z" fill="rgb(255,0,222)" stroke="none" />
  <path d="M 200.0 200.0 L 58.097643027210864 89.25831369548719 A 180.0 180.0 0 0 1 60.85811839470733 85.80920885054385 Z" fill="rgb(255,0,216)" stroke="none" />
  <path d="M 200.0 200.0 L 60.85811839470733 85.80920885054385 A 180.0 180.0 0 0 1 63.70240762883279 82.42888826832016 Z" fill="rgb(255,0,209)" stroke="none" />
  <path d="M 200.0 200.0 L 63.70240762883279 82.42888826832016 A 180.0 180.0 0 0 1 66.62879743610736 79.11938812753668 Z" fill="rgb(255,0,203)" stroke="none" />
  <path d="M 200.0 200.0 L 66.62879743610736 79.11938812753668 A 180.0 180.0 0 0 1 69.63552506873594 75.88270194732797 Z" fill="rgb(255,0,197)" stroke="none" />
  <path d="M 200.0 200.0 L 69.63552506873594 75.88270194732797 A 180.0 180.0 0 0 1 72.72077938642141 72.72077938642146 Z" fill="rgb(255,0,192)" stroke="none" />
  <path d="M 200.0 200.0 L 72.72077938642141 72.72077938642146 A 180.0 180.0 0 0 1 75.88270194732793 69.63552506873597 Z" fill="rgb(255,0,186)" stroke="none" />
  <path d="M 200.0 200.0 L 75.88270194732793 69.63552506873597 A 180.0 180.0 0 0 1 79.1193881275367 66.62879743610733 Z" fill="rgb(255,0,180)" stroke="none" />
  <path d="M 200.0 200.0 L 79.1193881275367 66.62879743610733 A 180.0 180.0 0 0 1 82.42888826832012 63.702407628832844 Z" fill="rgb(255,0,174)" stroke="none" />
  <path d="M 200.0 200.0 L 82.42888826832012 63.702407628832844 A 180.0 180.0 0 0 1 85.80920885054373 60.85811839470739 Z" fill="rgb(255,0,168)" stroke="none" />
  <path d="M 200.0 200.0 L 85.80920885054373 60.85811839470739 A 180.0 180.0 0 0 1 89.25831369548722 58.097643027210836 Z" fill="rgb(255,0,162)" stroke="none" />
  <path d="M 200.0 200.0 L 89.25831369548722 58.097643027210836 A 180.0 180.0 0 0 1 92.77412519136203 55.4226443334839 Z" fill="rgb(255,0,155)" stroke="none" />
  <path d="M 200.0 200.0 L 92.77412519136203 55.4226443334839 A 180.0 180.0 0 0 1 96.35452554478786 52.834733632714915 Z" fill="rgb(255,0,150)" stroke="none" />
  <path d="M 200.0 200.0 L 96.35452554478786 52.834733632714915 A 180.0 180.0 0 0 1 99.99735805647161 50.33546978554185 Z" fill="rgb(255,0,143)" stroke="none" />
  <path d="M 200.0 200.0 L 99.99735805647161 50.33546978554185 A 180.0 180.0 0 0 1 103.7004284203225 47.92635825505275 Z" fill="rgb(255,0,138)" stroke="none" />
  <path d="M 200.0 200.0 L 103.7004284203225 47.92635825505275 A 180.0 180.0 0 0 1 107.46150604522008 45.608850199951036 Z" fill="rgb(255,0,131)" stroke="none" />
  <path d="M 200.0 200.0 L 107.46150604522008 45.608850199951036 A 180.0 180.0 0 0 1 111.27832539863884 43.38434160043195 Z" fill="rgb(255,0,126)" stroke="none" />
  <path d="M 200.0 200.0 L 111.27832539863884 43.38434160043195 A 180.0 180.0 0 0 1 115.14858737132039 41.254172417296104 Z" fill="rgb(255,0,120)" stroke="none" />
  <path d="M 200.0 200.0 L 115.14858737132039 41.254172417296104 A 180.0 180.0 0 0 1 119.06996066217076 39.21962578480725 Z" fill="rgb(255,0,114)" stroke="none" />
  <path d="M 200.0 200.0 L 119.06996066217076 39.21962578480725 A 180.0 180.0 0 0 1 123.04008318254915 37.28192723778025 Z" fill="rgb(255,0,107)" stroke="none" />
  <path d="M 200.0 200.0 L 123.04008318254915 37.28192723778025 A 180.0 180.0 0 0 1 127.05656347910188 35.44224397336447 Z" fill="rgb(255,0,102)" stroke="none" />
  <path d="M 200.0 200.0 L 127.05656347910188 35.44224397336447 A 180.0 180.0 0 0 1 131.1169821742839 33.701684147968365 Z" fill="rgb(255,0,95)" stroke="none" />
  <path d="M 200.0 200.0 L 131.1169821742839 33.701684147968365 A 180.0 180.0 0 0 1 135.21889342370218 32.061296209746985 Z" fill="rgb(255,0,90)" stroke="none" />
  <path d="M 200.0 200.0 L 135.21889342370218 32.061296209746985 A 180.0 180.0 0 0 1 139.3598263894004 30.522068267056255 Z" fill="rgb(255,0,83)" stroke="none" />
  <path d="M 200.0 200.0 L 139.3598263894004 30.522068267056255 A 180.0 180.0 0 0 1 143.53728672819955 29.08492749325339 Z" fill="rgb(255,0,78)" stroke="none" />
  <path d="M 200.0 200.0 L 143.53728672819955 29.08492749325339 A 180.0 180.0 0 0 1 147.74875809419677 27.75073956820242 Z" fill="rgb(255,0,71)" stroke="none" />
  <path d="M 200.0 200.0 L 147.74875809419677 27.75073956820242 A 180.0 180.0 0 0 1 151.99170365451826 26.520308156820818 Z" fill="rgb(255,0,65)" stroke="none" />
  <path d="M 200.0 200.0 L 151.99170365451826 26.520308156820818 A 180.0 180.0 0 0 1 156.26356761741246 25.39437442498209 Z" fill="rgb(255,0,60)" stroke="none" />
  <path d="M 200.0 200.0 L 156.26356761741246 25.39437442498209 A 180.0 180.0 0 0 1 160.5617767717634 24.373616593064867 Z" fill="rgb(255,0,54)" stroke="none" />
  <path d="M 200.0 200.0 L 160.5617767717634 24.373616593064867 A 180.0 180.0 0 0 1 164.88374203709685 23.458649527418544 Z" fill="rgb(255,0,48)" stroke="none" />
  <path d="M 200.0 200.0 L 164.88374203709685 23.458649527418544 A 180.0 180.0 0 0 1 169.2268600231457 22.650024369990604 Z" fill="rgb(255,0,42)" stroke="none" />
  <path d="M 200.0 200.0 L 169.2268600231457 22.650024369990604 A 180.0 180.0 0 0 1 173.58851459803495 21.948228206339422 Z" fill="rgb(255,0,36)" stroke="none" />
  <path d="M 200.0 200.0 L 173.58851459803495 21.948228206339422 A 180.0 180.0 0 0 1 177.96607846414113 21.353683772232188 Z" fill="rgb(255,0,30)" stroke="none" />
  <path d="M 200.0 200.0 L 177.96607846414113 21.353683772232188 A 180.0 180.0 0 0 1 182.35691474067912 20.866749199004545 Z" fill="rgb(255,0,24)" stroke="none" />
  <path d="M 200.0 200.0 L 182.35691474067912 20.866749199004545 A 180.0 180.0 0 0 1 186.75837855205987 20.487717797835757 Z" fill="rgb(255,0,18)" stroke="none" />
  <path d="M 200.0 200.0 L 186.75837855205987 20.487717797835757 A 180.0 180.0 0 0 1 191.16781862106475 20.216817883068956 Z" fill="rgb(255,0,11)" stroke="none" />
  <path d="M 200.0 200.0 L 191.16781862106475 20.216817883068956 A 180.0 180.0 0 0 1 195.58257886587577 20.05421263468324 Z" fill="rgb(255,0,5)" stroke="none" />
  <path d="M 200.0 200.0 L 195.58257886587577 20.05421263468324 A 180.0 180.0 0 0 1 199.99999999999997 20.0 Z" fill="rgb(255,0,0)" stroke="none" />
  <text x="200.0" y="60.0" font-family="Arial" font-size="12" font-weight="bold" fill="white" text-anchor="middle" dominant-baseline="middle" stroke="black" stroke-width="0.5">Red (0/255)</text>
  <text x="322.0967315377055" y="131.49899162925072" font-family="Arial" font-size="12" font-weight="bold" fill="white" text-anchor="middle" dominant-baseline="middle" stroke="black" stroke-width="0.5">Yellow (43)</text>
  <text x="321.24355652982143" y="270.0" font-family="Arial" font-size="12" font-weight="bold" fill="white" text-anchor="middle" dominant-baseline="middle" stroke="black" stroke-width="0.5">Green (85)</text>
  <text x="198.27524766506667" y="339.9893754160763" font-family="Arial" font-size="12" font-weight="bold" fill="white" text-anchor="middle" dominant-baseline="middle" stroke="black" stroke-width="0.5">Cyan (128)</text>
  <text x="78.75644347017858" y="270.0" font-family="Arial" font-size="12" font-weight="bold" fill="white" text-anchor="middle" dominant-baseline="middle" stroke="black" stroke-width="0.5">Blue (170)</text>
  <text x="79.62802079722785" y="128.51163295467308" font-family="Arial" font-size="12" font-weight="bold" fill="white" text-anchor="middle" dominant-baseline="middle" stroke="black" stroke-width="0.5">Magenta (213)</text>
</svg>
